<svg width="28" height="23" viewBox="0 0 28 23" fill="none" xmlns="http://www.w3.org/2000/svg">
<path d="M1.04177 15.5589L10.361 9.54783L11.2272 10.9488L0.866194 17.3549L1.04177 15.5589Z" fill="#7C7587"/>
<rect width="5.94809" height="1.65617" transform="matrix(0.829815 0.558039 -0.55804 0.829814 10.5059 9.51013)" fill="#7C7587"/>
<rect width="12.4547" height="1.56859" transform="matrix(-0.733559 0.679626 -0.679624 -0.733561 23.2305 5.68591)" fill="#7C7587"/>
<path d="M25.7686 2.22644L24.5313 7.33162L20.6662 3.47531L25.7686 2.22644Z" fill="#7C7587"/>
<path d="M1.89307 19.5543L6.27413 17.15V22.9736H1.89307V19.5543Z" fill="#7C7587"/>
<path d="M8.30469 16.0281L10.5486 14.3718L12.6857 15.6541V22.9202H8.30469V16.0281Z" fill="#7C7587"/>
<path d="M14.502 16.7229L18.9899 13.0364V15.7078V22.9739H14.6088L14.502 16.7229Z" fill="#7C7587"/>
<path d="M21.127 11.0593L23.3175 8.92224L25.508 11.0593V22.9737H21.127V11.0593Z" fill="#7C7587"/>
</svg>
