<svg width="31" height="24" viewBox="0 0 31 24" fill="none" xmlns="http://www.w3.org/2000/svg">
<path d="M15.6333 12.2277V23.2944M15.6333 12.2277L27.5 6.09442M15.6333 12.2277L3.5 6.09442M15.6333 23.2944L27.5 17.5611V6.09442M15.6333 23.2944L3.5 17.5611V6.09442M27.5 6.09442L15.6333 0.93335L3.5 6.09442" stroke="#7C7587" stroke-linecap="round" stroke-linejoin="round"/>
<circle cx="15.5001" cy="6.4" r="5.9" fill="#443959" stroke="#7C7587" stroke-linecap="round" stroke-linejoin="round"/>
<path d="M27.5 6L30.5 8.5L17.5 15L15.5 12.5L13.5 15L1 8.5L3 6L15.5 12.5L27.5 6Z" fill="#443959"/>
<path d="M15.5 12.5L17.5 15L30.5 8.5L27.5 6L15.5 12.5ZM15.5 12.5L13.5 15L1 8.5L3 6L15.5 12.5Z" stroke="#7C7587" stroke-linecap="round" stroke-linejoin="round"/>
</svg>
