<svg width="16" height="16" viewBox="0 0 16 16" fill="none" xmlns="http://www.w3.org/2000/svg">
<path d="M0.624941 7.0834C0.624941 10.6594 3.47719 13.5418 6.9755 13.5418C10.4738 13.5418 13.326 10.6594 13.326 7.0834C13.326 3.50745 10.4738 0.625 6.9755 0.625C3.47719 0.625 0.624941 3.50745 0.624941 7.0834Z" stroke="#7C7587" stroke-width="1.25"/>
<path d="M10.9502 12.1189C10.704 11.8769 10.6976 11.4782 10.9358 11.2283C11.174 10.9785 11.5666 10.9722 11.8127 11.2141L10.9502 12.1189ZM15.2034 14.5475C15.4496 14.7895 15.4561 15.1882 15.2179 15.438C14.9797 15.6879 14.5871 15.6942 14.3409 15.4522L15.2034 14.5475ZM11.8127 11.2141L15.2034 14.5475L14.3409 15.4522L10.9502 12.1189L11.8127 11.2141Z" fill="#7C7587"/>
</svg>
