<svg width="24" height="32" viewBox="0 0 24 32" fill="none" xmlns="http://www.w3.org/2000/svg">
<path d="M22.097 0H13.3352H4.08573C1.8605 0.00409521 0.0547056 1.80142 0.0400391 4.02664V27.9732C0.0547056 30.1984 1.8605 31.9957 4.08573 31.9998H22.1085C22.6033 32.0071 23.0806 31.8166 23.4342 31.4703C23.7716 31.1236 23.9603 30.6589 23.9599 30.1751V1.86285C23.9578 0.834852 23.125 0.00209523 22.097 0ZM14.1047 1.5238H18.5809V8.67042L16.9923 6.13711C16.9279 6.02987 16.8382 5.94006 16.731 5.87577C16.3701 5.6593 15.9021 5.77625 15.6857 6.13711L14.1047 8.659V1.5238ZM1.58289 4.02664C1.58917 2.64694 2.70602 1.53009 4.08573 1.5238H12.5809V9.29518C12.5522 9.91375 12.9406 10.4752 13.5295 10.6666C14.2 10.8685 14.8019 10.4342 15.1599 9.8628L16.3447 7.95805L17.5295 9.8628C17.8837 10.4266 18.4856 10.8609 19.1752 10.6666C19.7613 10.4759 20.1489 9.91861 20.1237 9.3028V1.54285H22.1085C22.2844 1.54494 22.4264 1.68694 22.4285 1.86285V23.9575C22.3228 23.9396 22.2157 23.9307 22.1085 23.9313H4.08573C3.17688 23.931 2.29469 24.2385 1.58289 24.8037V4.02664ZM22.4285 27.2189L4.86287 27.2379C4.44211 27.2379 4.10097 27.5791 4.10097 27.9998C4.10097 28.4206 4.44211 28.7617 4.86287 28.7617L22.4285 28.7427V30.1598C22.4292 30.2451 22.3965 30.3272 22.337 30.3884C22.2759 30.4477 22.1937 30.4806 22.1085 30.4798H4.08573C2.7024 30.4798 1.58098 29.3584 1.58098 27.9751C1.58098 26.5917 2.7024 25.4703 4.08573 25.4703H22.1085C22.2844 25.4724 22.4264 25.6144 22.4285 25.7903V27.2189Z" fill="#7C7587"/>
</svg>
