<svg width="28" height="22" viewBox="0 0 28 22" fill="none" xmlns="http://www.w3.org/2000/svg">
<path d="M27.4636 7.04993C27.1149 6.74341 26.659 6.53907 26.1494 6.53907C26.1762 6.53907 26.2031 6.53907 26.2299 6.53907V3.90811C26.2299 2.8353 25.7739 1.86466 25.023 1.14945C24.272 0.434235 23.2529 0 22.1264 0H4.10345C2.97701 0 1.95785 0.434235 1.2069 1.14945C0.455939 1.86466 0 2.8353 0 3.90811V17.114C0 18.1868 0.455939 19.1574 1.2069 19.8726C1.95785 20.5878 2.97701 21.0221 4.10345 21.0221H22.1264C23.2529 21.0221 24.272 20.5878 25.023 19.8726C25.7739 19.1574 26.2299 18.1868 26.2299 17.114V14.4575C26.2031 14.4575 26.1762 14.4575 26.1494 14.4575C26.659 14.4575 27.1149 14.2531 27.4636 13.9466C27.7854 13.6401 28 13.1803 28 12.695V8.30155C28 7.81623 27.7854 7.382 27.4636 7.04993ZM24.7548 17.0884C24.7548 17.7781 24.4598 18.3911 23.977 18.8509C23.4943 19.3107 22.8506 19.5917 22.1264 19.5917H4.10345C3.37931 19.5917 2.73563 19.3107 2.25287 18.8509C1.77011 18.3911 1.4751 17.7781 1.4751 17.0884V3.90811C1.4751 3.21845 1.77011 2.60541 2.25287 2.14563C2.73563 1.68585 3.37931 1.40488 4.10345 1.40488H22.1264C22.8506 1.40488 23.4943 1.68585 23.977 2.14563C24.4598 2.60541 24.7548 3.21845 24.7548 3.90811V6.53907H16.4406C15.3142 6.53907 14.3218 6.9733 13.5709 7.66297C12.8467 8.35264 12.3908 9.32328 12.3908 10.3961V10.5749C12.3908 11.6477 12.8467 12.5928 13.5709 13.308C14.295 13.9977 15.3142 14.4319 16.4406 14.4319H24.7548V17.0884ZM26.5249 12.695C26.5249 12.7972 26.4713 12.8993 26.4176 12.9504C26.3372 13.027 26.2567 13.0526 26.1494 13.0526H16.4406C15.7433 13.0526 15.0728 12.7716 14.6169 12.3374C14.1609 11.9031 13.8659 11.2646 13.8659 10.6004V10.4216C13.8659 9.73197 14.1609 9.11893 14.6169 8.6847C15.0996 8.22492 15.7433 7.96949 16.4406 7.96949H26.1494C26.2567 7.96949 26.364 8.02058 26.4176 8.07166C26.4981 8.14829 26.5249 8.22492 26.5249 8.3271V12.695Z" fill="#7C7587"/>
<path d="M16.6283 9.34888C16.3065 9.34888 16.0115 9.47659 15.7969 9.68094C15.5823 9.88529 15.4482 10.1663 15.4482 10.4728C15.4482 10.7793 15.5823 11.0603 15.7969 11.2646C16.0115 11.469 16.3065 11.5967 16.6283 11.5967C16.9502 11.5967 17.2452 11.469 17.4866 11.2646C17.7011 11.0603 17.8352 10.7793 17.8352 10.4472C17.8352 10.1407 17.7011 9.85974 17.4866 9.62985C17.2452 9.47659 16.9502 9.34888 16.6283 9.34888Z" fill="#7C7587"/>
</svg>
