<svg width="29" height="30" viewBox="0 0 29 30" fill="none" xmlns="http://www.w3.org/2000/svg">
<path d="M0.530687 15.9758C0.875681 15.6725 1.32683 15.4703 1.83105 15.4703C1.80451 15.4703 1.77797 15.4703 1.75143 15.4703V12.867C1.75143 11.8055 2.20258 10.8451 2.94564 10.1374C3.68871 9.42967 4.69715 9 5.81174 9H23.6453C24.7599 9 25.7683 9.42967 26.5114 10.1374C27.2544 10.8451 27.7056 11.8055 27.7056 12.867V25.934C27.7056 26.9956 27.2544 27.956 26.5114 28.6637C25.7683 29.3714 24.7599 29.8011 23.6453 29.8011H5.81174C4.69715 29.8011 3.68871 29.3714 2.94564 28.6637C2.20258 27.956 1.75143 26.9956 1.75143 25.934V23.3055C1.77797 23.3055 1.80451 23.3055 1.83105 23.3055C1.32683 23.3055 0.875681 23.1033 0.530687 22.8C0.212233 22.4967 -7.05719e-05 22.0417 -7.05719e-05 21.5615V17.2143C-7.05719e-05 16.7341 0.212233 16.3044 0.530687 15.9758ZM3.21102 25.9088C3.21102 26.5912 3.50294 27.1978 3.98062 27.6527C4.45831 28.1077 5.09522 28.3857 5.81174 28.3857H23.6453C24.3618 28.3857 24.9987 28.1077 25.4764 27.6527C25.9541 27.1978 26.246 26.5912 26.246 25.9088V12.867C26.246 12.1846 25.9541 11.578 25.4764 11.1231C24.9987 10.6681 24.3618 10.3901 23.6453 10.3901H5.81174C5.09522 10.3901 4.45831 10.6681 3.98062 11.1231C3.50294 11.578 3.21102 12.1846 3.21102 12.867V15.4703H11.4378C12.5524 15.4703 13.5343 15.9 14.2774 16.5824C14.9939 17.2648 15.445 18.2253 15.445 19.2868V19.4637C15.445 20.5253 14.9939 21.4604 14.2774 22.1681C13.5608 22.8505 12.5524 23.2802 11.4378 23.2802H3.21102V25.9088ZM1.45952 21.5615C1.45952 21.6626 1.51259 21.7637 1.56567 21.8143C1.64528 21.8901 1.7249 21.9154 1.83105 21.9154H11.4378C12.1278 21.9154 12.7912 21.6373 13.2424 21.2077C13.6935 20.778 13.9854 20.1461 13.9854 19.489V19.3121C13.9854 18.6297 13.6935 18.0231 13.2424 17.5934C12.7647 17.1385 12.1278 16.8857 11.4378 16.8857H1.83105C1.7249 16.8857 1.61875 16.9363 1.56567 16.9868C1.48606 17.0626 1.45952 17.1385 1.45952 17.2396V21.5615Z" fill="#7C7587"/>
<path d="M11.2522 18.2505C11.5707 18.2505 11.8626 18.3769 12.0749 18.5791C12.2872 18.7813 12.4199 19.0593 12.4199 19.3626C12.4199 19.6659 12.2872 19.9439 12.0749 20.1461C11.8626 20.3483 11.5707 20.4747 11.2522 20.4747C10.9338 20.4747 10.6419 20.3483 10.403 20.1461C10.1907 19.9439 10.058 19.6659 10.058 19.3373C10.058 19.034 10.1907 18.756 10.403 18.5285C10.6419 18.3769 10.9338 18.2505 11.2522 18.2505Z" fill="#7C7587"/>
<path d="M18.2856 7.85714V1H22.2856V7.85714H27.9999L20.5713 15.2857L12.5713 7.85714H18.2856Z" fill="#403554" stroke="#7C7587" stroke-linecap="round" stroke-linejoin="round"/>
</svg>
