<svg width="28" height="24" viewBox="0 0 28 24" fill="none" xmlns="http://www.w3.org/2000/svg">
<path d="M13.9981 6.81702L13.9956 12.7786C13.9956 13.0049 14.0879 13.2213 14.252 13.3811L18.6312 17.645L19.8685 16.44L15.7456 12.4257L15.7481 6.81702H13.9981Z" fill="#7C7587"/>
<path d="M15.75 0C9.59096 0 4.49357 4.45452 3.63985 10.2255H0L4.375 14.4861L8.74999 10.2255H5.40806C6.24517 5.39714 10.5574 1.70427 15.75 1.70427C21.54 1.70427 26.25 6.29108 26.25 11.9298C26.25 17.5685 21.5401 22.1553 15.75 22.1553C12.4953 22.1553 9.47721 20.7206 7.46997 18.2192L6.09082 19.2677C8.43211 22.1852 11.9526 23.8595 15.75 23.8595C22.5048 23.8595 28 18.5071 28 11.9298C28 5.35246 22.5048 4.94765e-05 15.75 0Z" fill="#7C7587"/>
</svg>
