<svg width="28" height="28" viewBox="0 0 28 28" fill="none" xmlns="http://www.w3.org/2000/svg">
<g clip-path="url(#clip0)">
<path d="M25.6667 9.33426H25.3426L21.335 2.33574C21.0251 1.79461 20.5249 1.40725 19.9245 1.24658C19.701 1.18719 19.4741 1.16045 19.2496 1.168C18.873 1.18063 18.5031 1.28738 18.1676 1.48185L1.15645 11.385C0.412805 11.8182 -0.00364009 12.6077 2.39753e-05 13.4174C0.00182866 13.8085 0.102508 14.2048 0.309938 14.5669L3.50002 20.1383V24.5003C3.50002 25.7871 4.54707 26.8335 5.83338 26.8335H25.6667C26.953 26.8335 28.0001 25.7871 28.0001 24.5003V11.6675C28 10.3807 26.953 9.33426 25.6667 9.33426ZM3.50002 11.6668V17.791L1.32166 13.9864C1.00266 13.4287 1.19177 12.7138 1.74434 12.3925L3.53185 11.3518C3.51763 11.4559 3.50002 11.5589 3.50002 11.6668ZM18.7556 2.49012C19.0199 2.33519 19.3275 2.29357 19.6226 2.37336C19.92 2.4531 20.1683 2.64565 20.3233 2.91564L23.9989 9.33426H6.99893L18.7556 2.49012ZM26.8334 24.5001C26.8334 25.1432 26.3104 25.6667 25.6667 25.6667H5.83338C5.18965 25.6667 4.66673 25.1432 4.66673 24.5001V11.6668C4.66673 11.0237 5.1897 10.5001 5.83338 10.5001H25.6667C26.3105 10.5001 26.8334 11.0237 26.8334 11.6668V24.5001Z" fill="#7C7587"/>
<path d="M25.0834 19.8334H18.0834C17.7609 19.8334 17.5 20.0943 17.5 20.4167C17.5 20.7392 17.7609 21.0001 18.0834 21.0001H25.0834C25.4058 21.0001 25.6667 20.7392 25.6667 20.4167C25.6667 20.0943 25.4058 19.8334 25.0834 19.8334Z" fill="#7C7587"/>
<path d="M25.0832 16.3334H15.7499C15.4274 16.3334 15.1665 16.5943 15.1665 16.9167C15.1665 17.2392 15.4274 17.5001 15.7499 17.5001H25.0832C25.4056 17.5001 25.6666 17.2392 25.6666 16.9167C25.6666 16.5943 25.4056 16.3334 25.0832 16.3334Z" fill="#7C7587"/>
<path d="M10.4999 18.6667C11.7862 18.6667 12.8332 17.6203 12.8332 16.3334C12.8332 15.0464 11.7862 14 10.4999 14C9.21355 14 8.1665 15.0464 8.1665 16.3334C8.1665 17.6203 9.21361 18.6667 10.4999 18.6667ZM10.4999 15.1667C11.1436 15.1667 11.6665 15.6902 11.6665 16.3334C11.6665 16.9765 11.1435 17.5 10.4999 17.5C9.85613 17.5 9.33321 16.9765 9.33321 16.3334C9.33321 15.6902 9.85618 15.1667 10.4999 15.1667Z" fill="#7C7587"/>
<path d="M13.9854 20.1096C13.1696 19.7177 11.9038 19.25 10.5001 19.25C9.09648 19.25 7.83068 19.7177 7.01496 20.1096C6.28582 20.4606 5.8335 21.1607 5.8335 21.9365V22.2031C5.8335 22.8263 6.35647 23.3334 7.00014 23.3334H14.0001C14.6439 23.3334 15.1668 22.8263 15.1668 22.2031V21.9365C15.1668 21.1607 14.7145 20.4606 13.9854 20.1096ZM14.0001 22.1667L7.00014 22.2031V21.9365C7.00014 21.6129 7.19953 21.3156 7.52082 21.1612C8.22722 20.8217 9.31638 20.4166 10.5001 20.4166C11.6839 20.4166 12.7731 20.8217 13.4795 21.1612C13.8008 21.3156 14.0001 21.6129 14.0001 21.9365V22.1667Z" fill="#7C7587"/>
</g>
<defs>
<clipPath id="clip0">
<rect width="28" height="28" fill="white"/>
</clipPath>
</defs>
</svg>
