<svg width="28" height="28" viewBox="0 0 28 28" fill="none" xmlns="http://www.w3.org/2000/svg">
<g clip-path="url(#clip0)">
<path d="M25.584 23.6169L23.5797 20.2779C22.6557 18.7367 22.1668 16.9727 22.1668 15.1749V12.25C22.1668 7.74787 18.5023 4.08337 14.0002 4.08337C9.49804 4.08337 5.83354 7.74787 5.83354 12.25V15.1749C5.83354 16.9727 5.34468 18.7367 4.42068 20.2779L2.41633 23.6169C2.30783 23.7965 2.30548 24.0217 2.40818 24.2037C2.51204 24.3869 2.70683 24.5001 2.91683 24.5001H25.0835C25.2935 24.5001 25.4883 24.3869 25.5921 24.2037C25.6948 24.0217 25.6925 23.7965 25.584 23.6169ZM3.94704 23.3334L5.42054 20.8775C6.45418 19.1555 7.00018 17.1839 7.00018 15.1749V12.25C7.00018 8.38952 10.1397 5.25002 14.0002 5.25002C17.8607 5.25002 21.0002 8.38952 21.0002 12.25V15.1749C21.0002 17.1839 21.5462 19.1555 22.5787 20.8775L24.0533 23.3334H3.94704Z" fill="#7C7587"/>
<path d="M13.9999 0C12.713 0 11.6665 1.0465 11.6665 2.33335V4.6667C11.6665 4.98865 11.9279 5.25 12.2499 5.25C12.5719 5.25 12.8332 4.98865 12.8332 4.66665V2.33335C12.8332 1.68935 13.3559 1.1667 13.9999 1.1667C14.6439 1.1667 15.1665 1.68935 15.1665 2.33335V4.6667C15.1665 4.98865 15.4279 5.25 15.7499 5.25C16.0719 5.25 16.3332 4.98865 16.3332 4.66665V2.33335C16.3332 1.0465 15.2867 0 13.9999 0Z" fill="#7C7587"/>
<path d="M16.5248 23.6214C16.3603 23.3438 16.0045 23.2528 15.7257 23.4126C15.4468 23.5759 15.3535 23.9341 15.5168 24.2117C15.6685 24.4696 15.7513 24.7787 15.7513 25.0832C15.7513 26.0481 14.9662 26.8332 14.0013 26.8332C13.0365 26.8332 12.2513 26.0481 12.2513 25.0832C12.2513 24.7787 12.3342 24.4696 12.4858 24.2117C12.648 23.9329 12.5547 23.5759 12.277 23.4126C11.9958 23.2527 11.6411 23.3437 11.4778 23.6214C11.22 24.0624 11.0835 24.5676 11.0835 25.0833C11.0836 26.6921 12.3913 28 14.0002 28C15.609 28 16.9168 26.6921 16.9192 25.0833C16.9192 24.5676 16.7827 24.0624 16.5248 23.6214Z" fill="#7C7587"/>
</g>
<defs>
<clipPath id="clip0">
<rect width="28" height="28" fill="white"/>
</clipPath>
</defs>
</svg>
