<svg width="28" height="28" viewBox="0 0 28 28" fill="none" xmlns="http://www.w3.org/2000/svg">
<g clip-path="url(#clip0)">
<path d="M26.1686 4.84653C22.077 3.78565 17.9614 2.13376 14.2668 0.0694188C14.1011 -0.0231123 13.8991 -0.0231669 13.7333 0.0694188C9.93244 2.19293 6.0393 3.75551 1.83148 4.84658C1.59031 4.90914 1.42188 5.1268 1.42188 5.37596V11.4131C1.42188 17.6221 4.44565 21.7293 6.98238 24.0814C9.70346 26.6046 12.8591 28.0001 14.0001 28.0001C15.1411 28.0001 18.2967 26.6046 21.0178 24.0814C23.5544 21.7293 26.5783 17.6221 26.5783 11.4131V5.3759C26.5782 5.12675 26.4098 4.90909 26.1686 4.84653ZM20.2741 23.2792C18.7671 24.6767 17.3026 25.5589 16.3393 26.0529C15.1188 26.6789 14.2716 26.9062 14 26.9062C13.7285 26.9062 12.8813 26.6789 11.6607 26.0529C10.6976 25.5589 9.23304 24.6767 7.72597 23.2792C5.34903 21.0752 2.51557 17.2274 2.51557 11.413V5.79732C6.56047 4.71451 10.325 3.19841 14.0001 1.17219C17.582 3.14416 21.5375 4.73699 25.4844 5.79716V11.413H25.4845C25.4844 17.2274 22.651 21.0752 20.2741 23.2792Z" fill="#7C7587"/>
<path d="M24.27 6.30923C20.8063 5.30227 17.4376 3.93449 14.2574 2.24394C14.0968 2.15846 13.9041 2.15862 13.7436 2.24426C10.5586 3.94187 7.18987 5.30988 3.73089 6.31027C3.49699 6.37792 3.33594 6.59208 3.33594 6.8356V11.413C3.33594 13.5501 3.7409 15.5781 4.5395 17.4408C5.33411 19.2942 6.51924 20.9856 8.06186 22.4684C9.16518 23.5288 10.4391 24.4632 11.746 25.1706C11.9802 25.2974 13.1845 25.9364 13.9008 26.0687C13.9336 26.0747 13.9668 26.0777 14 26.0777C14.0333 26.0777 14.0665 26.0747 14.0993 26.0687C14.8155 25.9364 16.0199 25.2974 16.2541 25.1706C17.5608 24.4632 18.8348 23.5288 19.9382 22.4684C21.4808 20.9857 22.6659 19.2943 23.4606 17.4408C24.2592 15.5781 24.6641 13.5501 24.6641 11.413V6.8344C24.6642 6.5912 24.5035 6.37721 24.27 6.30923ZM23.5704 11.413C23.5704 15.4258 22.0934 18.88 19.1804 21.6797C18.1469 22.673 16.955 23.5475 15.7335 24.2087C15.1775 24.5097 14.4269 24.8606 14 24.9708C13.5732 24.8606 12.8226 24.5097 12.2667 24.2087C11.0451 23.5474 9.8532 22.6729 8.81977 21.6797C5.90674 18.88 4.42969 15.4257 4.42969 11.413V7.24504C7.73029 6.26237 10.9469 4.95195 14.001 3.3455C17.0502 4.94517 20.2665 6.25509 23.5704 7.24329V11.413H23.5704Z" fill="#7C7587"/>
<path d="M17.2069 12.3068V10.292C17.2069 8.50696 15.7725 7.05469 14.0094 7.05469C12.2463 7.05469 10.812 8.50696 10.812 10.292V12.3068C10.0928 12.3331 9.51563 12.9332 9.51563 13.6677V18.3659C9.51556 19.117 10.1191 19.7281 10.8609 19.7281H17.158C17.8999 19.7281 18.5034 19.117 18.5034 18.3659V13.6677C18.5034 12.9331 17.9262 12.3329 17.2069 12.3068ZM12.0208 10.292C12.0208 9.18188 12.9129 8.27869 14.0094 8.27869C15.1059 8.27869 15.9979 9.18188 15.9979 10.292V12.3055H12.0207V10.292H12.0208ZM17.2945 18.366C17.2945 18.4409 17.232 18.5041 17.158 18.5041H10.8608C10.7868 18.5041 10.7243 18.4409 10.7243 18.366V13.6677H10.7244C10.7244 13.5928 10.7869 13.5296 10.8609 13.5296H11.4163H16.6024H17.158C17.232 13.5296 17.2945 13.5928 17.2945 13.6677V18.366Z" fill="#7C7587"/>
<path d="M14.0092 14.7893C13.5437 14.7893 13.1641 15.1737 13.1641 15.645C13.1641 15.8767 13.2561 16.0872 13.4047 16.2415V16.8404C13.4047 17.1784 13.6754 17.4524 14.0092 17.4524C14.343 17.4524 14.6136 17.1784 14.6136 16.8404V16.2415C14.7623 16.0871 14.8543 15.8767 14.8543 15.645C14.8543 15.1737 14.4747 14.7893 14.0092 14.7893Z" fill="#7C7587"/>
</g>
<defs>
<clipPath id="clip0">
<rect width="28" height="28" fill="white"/>
</clipPath>
</defs>
</svg>
