<svg width="28" height="28" viewBox="0 0 28 28" fill="none" xmlns="http://www.w3.org/2000/svg">
<path d="M5.98348 4.87227H0.823522C0.368647 4.87227 0 4.50337 0 4.04874C0 3.59411 0.368647 3.22522 0.823522 3.22522H5.98348C6.43835 3.22522 6.807 3.59411 6.807 4.04874C6.807 4.50337 6.43835 4.87227 5.98348 4.87227Z" fill="#7C7587"/>
<path d="M8.9323 7.8206C6.85228 7.8206 5.16016 6.12848 5.16016 4.04864C5.16016 1.96837 6.85228 0.276245 8.9323 0.276245C11.0123 0.276245 12.7044 1.96837 12.7044 4.04864C12.7044 6.12854 11.0123 7.8206 8.9323 7.8206ZM8.9323 1.92335C7.76049 1.92335 6.8072 2.87683 6.8072 4.04864C6.8072 5.22044 7.76049 6.17349 8.9323 6.17349C10.1041 6.17349 11.0574 5.22044 11.0574 4.04864C11.0574 2.87683 10.1041 1.92335 8.9323 1.92335Z" fill="#7C7587"/>
<path d="M27.1763 4.87227H14.868C14.4131 4.87227 14.0444 4.50337 14.0444 4.04874C14.0444 3.59411 14.4131 3.22522 14.868 3.22522H27.1763C27.6311 3.22522 27.9998 3.59411 27.9998 4.04874C27.9998 4.50337 27.6312 4.87227 27.1763 4.87227Z" fill="#7C7587"/>
<path d="M19.9894 17.7721C17.9093 17.7721 16.2173 16.0799 16.2173 14.0001C16.2173 11.9203 17.9094 10.2281 19.9894 10.2281C22.0695 10.2281 23.7616 11.9203 23.7616 14.0001C23.7616 16.0799 22.0695 17.7721 19.9894 17.7721ZM19.9894 11.8753C18.8176 11.8753 17.8643 12.8283 17.8643 14.0001C17.8643 15.1719 18.8176 16.125 19.9894 16.125C21.1612 16.125 22.1145 15.1719 22.1145 14.0001C22.1145 12.8283 21.1612 11.8753 19.9894 11.8753Z" fill="#7C7587"/>
<path d="M14.0534 14.8235H0.823522C0.368647 14.8235 0 14.4546 0 13.9999C0 13.5453 0.368647 13.1764 0.823522 13.1764H14.0534C14.5083 13.1764 14.8769 13.5453 14.8769 13.9999C14.8769 14.4546 14.5083 14.8235 14.0534 14.8235Z" fill="#7C7587"/>
<path d="M27.1764 14.8235H22.9378C22.4829 14.8235 22.1143 14.4546 22.1143 13.9999C22.1143 13.5453 22.4829 13.1764 22.9378 13.1764H27.1764C27.6313 13.1764 27.9999 13.5453 27.9999 13.9999C27.9999 14.4546 27.6313 14.8235 27.1764 14.8235Z" fill="#7C7587"/>
<path d="M8.01091 27.7237C5.93089 27.7237 4.23877 26.0316 4.23877 23.9513C4.23877 21.8714 5.93089 20.1793 8.01091 20.1793C10.0909 20.1793 11.7831 21.8714 11.7831 23.9513C11.7831 26.0316 10.0909 27.7237 8.01091 27.7237ZM8.01091 21.8264C6.8391 21.8264 5.88581 22.7795 5.88581 23.9513C5.88581 25.1231 6.8391 26.0766 8.01091 26.0766C9.18272 26.0766 10.136 25.1231 10.136 23.9513C10.136 22.7795 9.18272 21.8264 8.01091 21.8264Z" fill="#7C7587"/>
<path d="M27.1765 24.7752H13.9466C13.4917 24.7752 13.123 24.4063 13.123 23.9517C13.123 23.4971 13.4917 23.1282 13.9466 23.1282H27.1765C27.6313 23.1282 28 23.4971 28 23.9517C28 24.4063 27.6313 24.7752 27.1765 24.7752Z" fill="#7C7587"/>
<path d="M5.06213 24.7752H0.823522C0.368647 24.7752 0 24.4063 0 23.9516C0 23.4969 0.368647 23.1281 0.823522 23.1281H5.06213C5.51701 23.1281 5.88566 23.4969 5.88566 23.9516C5.88566 24.4063 5.51701 24.7752 5.06213 24.7752Z" fill="#7C7587"/>
</svg>
