<svg width="28" height="26" viewBox="0 0 28 26" fill="none" xmlns="http://www.w3.org/2000/svg">
<path d="M4.66686 10.8837H10.7335C10.9916 10.8837 11.2002 10.6746 11.2002 10.417C11.2002 10.1594 10.9916 9.95032 10.7335 9.95032H4.66686C4.4088 9.95032 4.2002 10.1594 4.2002 10.417C4.2002 10.6746 4.4088 10.8837 4.66686 10.8837Z" fill="#7C7587"/>
<path d="M16.8002 12.7502H4.66686C4.4088 12.7502 4.2002 12.9593 4.2002 13.2169C4.2002 13.4745 4.4088 13.6836 4.66686 13.6836H16.8002C17.0583 13.6836 17.2669 13.4745 17.2669 13.2169C17.2669 12.9593 17.0583 12.7502 16.8002 12.7502Z" fill="#7C7587"/>
<path d="M16.8002 15.5503H4.66686C4.4088 15.5503 4.2002 15.7594 4.2002 16.017C4.2002 16.2746 4.4088 16.4836 4.66686 16.4836H16.8002C17.0583 16.4836 17.2669 16.2746 17.2669 16.017C17.2669 15.7594 17.0583 15.5503 16.8002 15.5503Z" fill="#7C7587"/>
<path d="M25.2336 0.182935L9.30067 0.150269C7.77467 0.150269 6.53333 1.3916 6.53333 2.9176V5.3088L2.76733 5.31674C1.24133 5.31674 0 6.55807 0 8.08407V17.9499C0 19.4759 1.24133 20.7167 2.76733 20.7167H5.6V25.3834C5.6 25.5761 5.71853 25.7493 5.89867 25.8188C5.95327 25.8398 6.0102 25.8501 6.06667 25.8501C6.19547 25.8501 6.32193 25.7964 6.412 25.6975L10.9405 20.7158L18.6993 20.6841C20.2253 20.6841 21.4667 19.4427 21.4667 17.9172V17.8645L23.9213 20.5646C24.0114 20.6635 24.1379 20.7172 24.2667 20.7172C24.3231 20.7172 24.3801 20.7069 24.4347 20.6859C24.6148 20.6164 24.7333 20.4433 24.7333 20.2505V15.5839H25.2327C26.7587 15.5839 28 14.3425 28 12.817V2.95027C28 1.42474 26.7591 0.183402 25.2336 0.182935ZM20.5333 17.9167C20.5333 18.928 19.7106 19.7503 18.6975 19.7503L10.7315 19.7829C10.6008 19.7834 10.4757 19.8389 10.388 19.9355L6.53333 24.1761V20.2496C6.53333 19.992 6.32473 19.7829 6.06667 19.7829H2.76733C1.75607 19.7829 0.933333 18.9602 0.933333 17.9494V8.0836C0.933333 7.07234 1.75607 6.2496 2.76827 6.2496L7 6.24074C7.00047 6.24074 7.00047 6.24074 7.00093 6.24074L18.6993 6.21647C19.7106 6.21647 20.5333 7.0392 20.5333 8.05047V16.6563V17.9167ZM27.0667 12.8161C27.0667 13.8273 26.2439 14.6496 25.2327 14.6496H24.2667C24.0086 14.6496 23.8 14.8587 23.8 15.1163V19.0428L21.4667 16.4761V8.05094C21.4667 6.52494 20.2253 5.2836 18.6984 5.2836L7.46667 5.30647V2.91714C7.46667 1.90587 8.2894 1.08314 9.29973 1.08314L25.2322 1.1158C25.2327 1.1158 25.2327 1.1158 25.2331 1.1158C26.2444 1.1158 27.0671 1.93853 27.0671 2.9498V12.8161H27.0667Z" fill="#7C7587"/>
</svg>
