<svg width="28" height="28" viewBox="0 0 28 28" fill="none" xmlns="http://www.w3.org/2000/svg">
<g clip-path="url(#clip0)">
<path d="M20.3618 28C20.1658 28 19.9651 27.9755 19.7668 27.923L1.7266 23.0918C0.489937 22.7512 -0.247397 21.4702 0.0769364 20.2335L2.3531 11.7495C2.4371 11.438 2.75677 11.2572 3.0671 11.3365C3.3786 11.4193 3.56294 11.7402 3.4801 12.0505L1.2051 20.5322C1.04294 21.1505 1.41394 21.7945 2.03344 21.966L20.0666 26.7948C20.6861 26.9582 21.3254 26.5895 21.4864 25.9735L22.3976 22.5972C22.4816 22.2857 22.8013 22.1002 23.1128 22.1853C23.4243 22.2693 23.6074 22.5902 23.5246 22.9005L22.6146 26.2722C22.3404 27.3105 21.3954 28 20.3618 28Z" fill="#7C7587"/>
<path d="M25.6665 21H6.99984C5.713 21 4.6665 19.9535 4.6665 18.6667V4.66671C4.6665 3.37987 5.713 2.33337 6.99984 2.33337H25.6665C26.9533 2.33337 27.9998 3.37987 27.9998 4.66671V18.6667C27.9998 19.9535 26.9533 21 25.6665 21ZM6.99984 3.50004C6.357 3.50004 5.83317 4.02387 5.83317 4.66671V18.6667C5.83317 19.3095 6.357 19.8334 6.99984 19.8334H25.6665C26.3093 19.8334 26.8332 19.3095 26.8332 18.6667V4.66671C26.8332 4.02387 26.3093 3.50004 25.6665 3.50004H6.99984Z" fill="#7C7587"/>
<path d="M10.4998 10.5C9.213 10.5 8.1665 9.45354 8.1665 8.1667C8.1665 6.87987 9.213 5.83337 10.4998 5.83337C11.7867 5.83337 12.8332 6.87987 12.8332 8.1667C12.8332 9.45354 11.7867 10.5 10.4998 10.5ZM10.4998 7.00004C9.857 7.00004 9.33317 7.52387 9.33317 8.1667C9.33317 8.80954 9.857 9.33337 10.4998 9.33337C11.1427 9.33337 11.6665 8.80954 11.6665 8.1667C11.6665 7.52387 11.1427 7.00004 10.4998 7.00004Z" fill="#7C7587"/>
<path d="M5.33167 19.7517C5.18234 19.7517 5.033 19.6945 4.91867 19.5813C4.69117 19.3538 4.69117 18.984 4.91867 18.7565L10.4288 13.2463C11.0892 12.586 12.243 12.586 12.9033 13.2463L14.5437 14.8867L19.0843 9.43835C19.4145 9.04285 19.8998 8.81302 20.4167 8.80835H20.4295C20.9405 8.80835 21.4247 9.03002 21.7583 9.41852L27.86 16.5375C28.07 16.7813 28.042 17.15 27.797 17.36C27.5531 17.57 27.1856 17.5432 26.9745 17.297L20.8728 10.178C20.7597 10.0473 20.6033 9.97501 20.4295 9.97501C20.3082 9.96451 20.0947 10.0485 19.9815 10.185L15.0313 16.1245C14.9263 16.2505 14.7735 16.3263 14.609 16.3333C14.4433 16.345 14.2858 16.2797 14.1703 16.163L12.0785 14.0712C11.858 13.8518 11.4742 13.8518 11.2537 14.0712L5.7435 19.5813C5.63034 19.6945 5.481 19.7517 5.33167 19.7517Z" fill="#7C7587"/>
</g>
<defs>
<clipPath id="clip0">
<rect width="28" height="28" fill="white"/>
</clipPath>
</defs>
</svg>
