<svg width="29" height="27" viewBox="0 0 29 27" fill="none" xmlns="http://www.w3.org/2000/svg">
<path d="M0.530687 6.97582C0.875681 6.67252 1.32683 6.47032 1.83105 6.47032C1.80451 6.47032 1.77797 6.47032 1.75143 6.47032V3.86703C1.75143 2.80549 2.20258 1.84505 2.94564 1.13736C3.68871 0.42967 4.69715 0 5.81174 0H23.6453C24.7599 0 25.7683 0.42967 26.5114 1.13736C27.2544 1.84505 27.7056 2.80549 27.7056 3.86703V16.934C27.7056 17.9956 27.2544 18.956 26.5114 19.6637C25.7683 20.3714 24.7599 20.8011 23.6453 20.8011H5.81174C4.69715 20.8011 3.68871 20.3714 2.94564 19.6637C2.20258 18.956 1.75143 17.9956 1.75143 16.934V14.3055C1.77797 14.3055 1.80451 14.3055 1.83105 14.3055C1.32683 14.3055 0.875681 14.1033 0.530687 13.8C0.212233 13.4967 -7.05719e-05 13.0417 -7.05719e-05 12.5615V8.21428C-7.05719e-05 7.73406 0.212233 7.30439 0.530687 6.97582ZM3.21102 16.9088C3.21102 17.5912 3.50294 18.1978 3.98062 18.6527C4.45831 19.1077 5.09522 19.3857 5.81174 19.3857H23.6453C24.3618 19.3857 24.9987 19.1077 25.4764 18.6527C25.9541 18.1978 26.246 17.5912 26.246 16.9088V3.86703C26.246 3.18461 25.9541 2.57802 25.4764 2.12307C24.9987 1.66813 24.3618 1.39011 23.6453 1.39011H5.81174C5.09522 1.39011 4.45831 1.66813 3.98062 2.12307C3.50294 2.57802 3.21102 3.18461 3.21102 3.86703V6.47032H11.4378C12.5524 6.47032 13.5343 6.89999 14.2774 7.58241C14.9939 8.26483 15.445 9.22526 15.445 10.2868V10.4637C15.445 11.5253 14.9939 12.4604 14.2774 13.1681C13.5608 13.8505 12.5524 14.2802 11.4378 14.2802H3.21102V16.9088ZM1.45952 12.5615C1.45952 12.6626 1.51259 12.7637 1.56567 12.8143C1.64528 12.8901 1.7249 12.9154 1.83105 12.9154H11.4378C12.1278 12.9154 12.7912 12.6373 13.2424 12.2077C13.6935 11.778 13.9854 11.1461 13.9854 10.489V10.3121C13.9854 9.62966 13.6935 9.02307 13.2424 8.5934C12.7647 8.13845 12.1278 7.88571 11.4378 7.88571H1.83105C1.7249 7.88571 1.61875 7.93626 1.56567 7.9868C1.48606 8.06263 1.45952 8.13845 1.45952 8.23955V12.5615Z" fill="#7C7587"/>
<path d="M11.2522 9.25049C11.5707 9.25049 11.8626 9.37686 12.0749 9.57906C12.2872 9.78126 12.4199 10.0593 12.4199 10.3626C12.4199 10.6659 12.2872 10.9439 12.0749 11.1461C11.8626 11.3483 11.5707 11.4747 11.2522 11.4747C10.9338 11.4747 10.6419 11.3483 10.403 11.1461C10.1907 10.9439 10.058 10.6659 10.058 10.3373C10.058 10.034 10.1907 9.75598 10.403 9.52851C10.6419 9.37686 10.9338 9.25049 11.2522 9.25049Z" fill="#7C7587"/>
<path d="M18.2856 18.2857V11.4286H22.2856V18.2857H27.9999L20.5713 25.7143L12.5713 18.2857H18.2856Z" fill="#403554" stroke="#7C7587" stroke-linecap="round" stroke-linejoin="round"/>
</svg>
